<svg width="32" height="32" viewBox="0 0 32 32" fill="none" xmlns="http://www.w3.org/2000/svg">
<path d="M15.9813 16.4545C12.2147 16.4545 9.084 13.3265 9.084 9.62517C9.084 5.79584 12.2147 2.6665 15.9827 2.6665C19.8787 2.6665 22.88 5.7945 22.88 9.62517C22.8733 11.4426 22.1453 13.183 20.8559 14.4638C19.5666 15.7446 17.8214 16.4612 16.004 16.4558L15.9813 16.4545ZM15.9813 6.68917C14.3867 6.68917 13.1733 8.02917 13.1733 9.6265C13.1733 11.2212 14.3867 12.4345 15.9827 12.4345C17.6427 12.4345 18.792 11.2212 18.792 9.6265C18.7933 8.02784 17.6427 6.68917 15.9813 6.68917ZM18.728 22.1372L22.6253 25.9038C23.392 26.7318 23.392 27.9452 22.6253 28.7118C21.796 29.5398 20.5173 29.5398 19.8787 28.7118L15.9827 24.8812L12.2147 28.7118C11.832 29.0945 11.32 29.2852 10.744 29.2852C10.2973 29.2852 9.78667 29.0932 9.33867 28.7118C8.572 27.9452 8.572 26.7318 9.33867 25.9025L13.2987 22.1358C11.8686 21.7124 10.4967 21.1126 9.21467 20.3505C8.256 19.8398 8.06534 18.5638 8.576 17.6052C9.21467 16.6478 10.364 16.3932 11.3867 17.0318C12.7715 17.8769 14.3624 18.324 15.9847 18.324C17.607 18.324 19.1979 17.8769 20.5827 17.0318C21.6053 16.3932 22.8173 16.6478 23.392 17.6052C23.968 18.5638 23.7107 19.8385 22.816 20.3505C21.604 21.1172 20.1987 21.6918 18.7293 22.1385L18.728 22.1372Z" fill="black"/>
</svg>
