<svg width="32" height="32" viewBox="0 0 32 32" fill="none" xmlns="http://www.w3.org/2000/svg">
<path d="M28.772 9.1401C28.9587 8.5201 28.772 8.06543 27.8893 8.06543H24.9653C24.2213 8.06543 23.8813 8.45876 23.6947 8.89076C23.6947 8.89076 22.208 12.5161 20.1013 14.8668C19.4213 15.5508 19.1107 15.7668 18.74 15.7668C18.5547 15.7668 18.2853 15.5508 18.2853 14.9308V9.1401C18.2853 8.3961 18.0707 8.06543 17.4507 8.06543H12.856C12.392 8.06543 12.112 8.40943 12.112 8.73743C12.112 9.44143 13.1653 9.6041 13.2733 11.5881V15.8921C13.2733 16.8348 13.104 17.0068 12.7307 17.0068C11.74 17.0068 9.32934 13.3681 7.89867 9.20276C7.62001 8.39343 7.33867 8.06676 6.592 8.06676H3.66934C2.83334 8.06676 2.66667 8.4601 2.66667 8.8921C2.66667 9.6681 3.65734 13.5081 7.28134 18.5868C9.69734 22.0548 13.0987 23.9348 16.1973 23.9348C18.0547 23.9348 18.284 23.5174 18.284 22.7974V20.1761C18.284 19.3414 18.4613 19.1734 19.0493 19.1734C19.4813 19.1734 20.2253 19.3921 21.96 21.0628C23.9413 23.0441 24.2693 23.9334 25.3827 23.9334H28.3053C29.14 23.9334 29.5573 23.5161 29.3173 22.6921C29.0547 21.8721 28.108 20.6788 26.852 19.2668C26.1693 18.4614 25.1493 17.5948 24.8387 17.1614C24.4053 16.6028 24.5307 16.3561 24.8387 15.8601C24.84 15.8614 28.4013 10.8454 28.772 9.1401Z" fill="black"/>
</svg>
