<svg width="20" height="20" viewBox="0 0 20 20" fill="none" xmlns="http://www.w3.org/2000/svg">
<path d="M8.33334 15C9.81249 14.9997 11.249 14.5045 12.4142 13.5934L16.0775 17.2567L17.2558 16.0784L13.5925 12.415C14.5042 11.2497 14.9997 9.81288 15 8.33335C15 4.65752 12.0092 1.66669 8.33334 1.66669C4.65751 1.66669 1.66667 4.65752 1.66667 8.33335C1.66667 12.0092 4.65751 15 8.33334 15ZM8.33334 3.33335C11.0908 3.33335 13.3333 5.57585 13.3333 8.33335C13.3333 11.0909 11.0908 13.3334 8.33334 13.3334C5.57584 13.3334 3.33334 11.0909 3.33334 8.33335C3.33334 5.57585 5.57584 3.33335 8.33334 3.33335Z" fill="#355EFE"/>
</svg>
